<mxfile host="app.diagrams.net" modified="2024-06-18T21:54:20.861Z" agent="Mozilla/5.0 (Windows NT 10.0; Win64; x64) AppleWebKit/537.36 (KHTML, like Gecko) Chrome/126.0.0.0 Safari/537.36" etag="tSyZQfea1slxr4xAVlkQ" version="24.5.5" type="google">
  <diagram name="Page-1" id="e7e014a7-5840-1c2e-5031-d8a46d1fe8dd">
    <mxGraphModel grid="1" page="1" gridSize="10" guides="1" tooltips="1" connect="1" arrows="1" fold="1" pageScale="1" pageWidth="1169" pageHeight="826" background="none" math="0" shadow="0">
      <root>
        <mxCell id="0" />
        <mxCell id="1" parent="0" />
        <mxCell id="2" value="Donante" style="swimlane;whiteSpace=wrap" vertex="1" parent="1">
          <mxGeometry x="390" y="128" width="280" height="1252" as="geometry" />
        </mxCell>
        <mxCell id="5" value="" style="ellipse;shape=startState;fillColor=#000000;strokeColor=#ff0000;" vertex="1" parent="2">
          <mxGeometry x="100" y="40" width="30" height="30" as="geometry" />
        </mxCell>
        <mxCell id="6" value="" style="edgeStyle=elbowEdgeStyle;elbow=horizontal;verticalAlign=bottom;endArrow=open;endSize=8;strokeColor=#FF0000;endFill=1;rounded=0" edge="1" parent="2" source="5" target="Ivp-T9Bl2kwM6SWE_Jyq-41">
          <mxGeometry x="100" y="40" as="geometry">
            <mxPoint x="115.5" y="110" as="targetPoint" />
          </mxGeometry>
        </mxCell>
        <mxCell id="Ivp-T9Bl2kwM6SWE_Jyq-41" value="Completa Formulario de Soporte" style="rounded=1;whiteSpace=wrap;html=1;arcSize=40;fontColor=#000000;fillColor=#ffffc0;strokeColor=#ff0000;" vertex="1" parent="2">
          <mxGeometry x="35.5" y="142" width="124.5" height="68" as="geometry" />
        </mxCell>
        <mxCell id="Ivp-T9Bl2kwM6SWE_Jyq-44" value="¿ El tipo de solicitud es QUIERO SER DONANTE?" style="rhombus;whiteSpace=wrap;html=1;fontColor=#000000;fillColor=#ffffc0;strokeColor=#ff0000;" vertex="1" parent="2">
          <mxGeometry x="15.5" y="342" width="164.5" height="150" as="geometry" />
        </mxCell>
        <mxCell id="Ivp-T9Bl2kwM6SWE_Jyq-47" value="recibe notificación que en su polígono hay potencial donante" style="rounded=1;whiteSpace=wrap;html=1;arcSize=40;fontColor=#000000;fillColor=#ffffc0;strokeColor=#ff0000;" vertex="1" parent="2">
          <mxGeometry x="-300" y="452" width="180" height="78" as="geometry" />
        </mxCell>
        <mxCell id="Ivp-T9Bl2kwM6SWE_Jyq-50" value="&amp;lt;&amp;lt;Actividad1 -&amp;nbsp;&lt;div&gt;Cargar nuevo Donante&amp;gt;&amp;gt;&lt;/div&gt;" style="html=1;dashed=1;rounded=1;absoluteArcSize=1;arcSize=20;verticalAlign=top;align=left;spacingTop=20;spacingLeft=20;whiteSpace=wrap;" vertex="1" parent="2">
          <mxGeometry x="-300" y="632" width="200" height="148" as="geometry" />
        </mxCell>
        <mxCell id="Ivp-T9Bl2kwM6SWE_Jyq-51" value="" style="group;resizeWidth=0;resizeHeight=0;" vertex="1" parent="Ivp-T9Bl2kwM6SWE_Jyq-50">
          <mxGeometry width="80" height="20" relative="1" as="geometry">
            <mxPoint x="30" y="-10" as="offset" />
          </mxGeometry>
        </mxCell>
        <mxCell id="Ivp-T9Bl2kwM6SWE_Jyq-52" value="" style="resizeWidth=0;resizeHeight=0;points=[[0,0],[0.5,0],[1,0]];html=1;" vertex="1" parent="Ivp-T9Bl2kwM6SWE_Jyq-51">
          <mxGeometry width="20" height="20" relative="1" as="geometry">
            <mxPoint as="offset" />
          </mxGeometry>
        </mxCell>
        <mxCell id="Ivp-T9Bl2kwM6SWE_Jyq-53" value="" style="resizeWidth=0;resizeHeight=0;points=[[0,0],[0.5,0],[1,0]];html=1;" vertex="1" parent="Ivp-T9Bl2kwM6SWE_Jyq-51">
          <mxGeometry width="20" height="20" relative="1" as="geometry">
            <mxPoint x="20" as="offset" />
          </mxGeometry>
        </mxCell>
        <mxCell id="Ivp-T9Bl2kwM6SWE_Jyq-54" value="" style="resizeWidth=0;resizeHeight=0;points=[[0,0],[0.5,0],[1,0]];html=1;" vertex="1" parent="Ivp-T9Bl2kwM6SWE_Jyq-51">
          <mxGeometry width="20" height="20" relative="1" as="geometry">
            <mxPoint x="40" as="offset" />
          </mxGeometry>
        </mxCell>
        <mxCell id="Ivp-T9Bl2kwM6SWE_Jyq-55" value="" style="resizeWidth=0;resizeHeight=0;points=[[0,0],[0.5,0],[1,0]];html=1;" vertex="1" parent="Ivp-T9Bl2kwM6SWE_Jyq-51">
          <mxGeometry width="20" height="20" relative="1" as="geometry">
            <mxPoint x="60" as="offset" />
          </mxGeometry>
        </mxCell>
        <mxCell id="Ivp-T9Bl2kwM6SWE_Jyq-66" value="" style="group;resizeWidth=0;resizeHeight=0;html=1;" vertex="1" parent="Ivp-T9Bl2kwM6SWE_Jyq-50">
          <mxGeometry x="1" y="1" width="80" height="20" relative="1" as="geometry">
            <mxPoint x="-110" y="-10" as="offset" />
          </mxGeometry>
        </mxCell>
        <mxCell id="Ivp-T9Bl2kwM6SWE_Jyq-67" value="" style="resizeWidth=0;resizeHeight=0;points=[[0,1],[0.5,1],[1,1]];html=1;" vertex="1" parent="Ivp-T9Bl2kwM6SWE_Jyq-66">
          <mxGeometry width="20" height="20" relative="1" as="geometry">
            <mxPoint as="offset" />
          </mxGeometry>
        </mxCell>
        <mxCell id="Ivp-T9Bl2kwM6SWE_Jyq-68" value="" style="resizeWidth=0;resizeHeight=0;points=[[0,1],[0.5,1],[1,1]];html=1;" vertex="1" parent="Ivp-T9Bl2kwM6SWE_Jyq-66">
          <mxGeometry width="20" height="20" relative="1" as="geometry">
            <mxPoint x="20" as="offset" />
          </mxGeometry>
        </mxCell>
        <mxCell id="Ivp-T9Bl2kwM6SWE_Jyq-69" value="" style="resizeWidth=0;resizeHeight=0;points=[[0,1],[0.5,1],[1,1]];html=1;" vertex="1" parent="Ivp-T9Bl2kwM6SWE_Jyq-66">
          <mxGeometry width="20" height="20" relative="1" as="geometry">
            <mxPoint x="40" as="offset" />
          </mxGeometry>
        </mxCell>
        <mxCell id="Ivp-T9Bl2kwM6SWE_Jyq-70" value="" style="resizeWidth=0;resizeHeight=0;points=[[0,1],[0.5,1],[1,1]];html=1;" vertex="1" parent="Ivp-T9Bl2kwM6SWE_Jyq-66">
          <mxGeometry width="20" height="20" relative="1" as="geometry">
            <mxPoint x="60" as="offset" />
          </mxGeometry>
        </mxCell>
        <mxCell id="Ivp-T9Bl2kwM6SWE_Jyq-48" value="" style="edgeStyle=orthogonalEdgeStyle;html=1;verticalAlign=bottom;endArrow=open;endSize=8;strokeColor=#ff0000;rounded=0;" edge="1" parent="2" source="Ivp-T9Bl2kwM6SWE_Jyq-47" target="Ivp-T9Bl2kwM6SWE_Jyq-50">
          <mxGeometry relative="1" as="geometry">
            <mxPoint x="-210" y="602" as="targetPoint" />
            <Array as="points">
              <mxPoint x="-160" y="582" />
              <mxPoint x="-160" y="582" />
            </Array>
          </mxGeometry>
        </mxCell>
        <mxCell id="Ivp-T9Bl2kwM6SWE_Jyq-49" style="edgeStyle=orthogonalEdgeStyle;rounded=0;orthogonalLoop=1;jettySize=auto;html=1;strokeColor=#ff0000;" edge="1" parent="2" source="Ivp-T9Bl2kwM6SWE_Jyq-44" target="Ivp-T9Bl2kwM6SWE_Jyq-47">
          <mxGeometry relative="1" as="geometry">
            <Array as="points">
              <mxPoint x="-150" y="416" />
            </Array>
          </mxGeometry>
        </mxCell>
        <mxCell id="Ivp-T9Bl2kwM6SWE_Jyq-95" value="Si" style="edgeLabel;html=1;align=center;verticalAlign=middle;resizable=0;points=[];" connectable="0" vertex="1" parent="Ivp-T9Bl2kwM6SWE_Jyq-49">
          <mxGeometry x="-0.3426" y="-3" relative="1" as="geometry">
            <mxPoint as="offset" />
          </mxGeometry>
        </mxCell>
        <mxCell id="Ivp-T9Bl2kwM6SWE_Jyq-131" style="edgeStyle=orthogonalEdgeStyle;rounded=0;orthogonalLoop=1;jettySize=auto;html=1;strokeColor=#ff0000;" edge="1" parent="2" source="Ivp-T9Bl2kwM6SWE_Jyq-41" target="Ivp-T9Bl2kwM6SWE_Jyq-44">
          <mxGeometry relative="1" as="geometry">
            <mxPoint x="97.59999999999991" y="238.97000000000003" as="targetPoint" />
          </mxGeometry>
        </mxCell>
        <mxCell id="3" value="Soporte Encargado" style="swimlane;whiteSpace=wrap" vertex="1" parent="1">
          <mxGeometry x="670" y="128" width="280" height="1252" as="geometry" />
        </mxCell>
        <mxCell id="4" value="Soporte" style="swimlane;whiteSpace=wrap" vertex="1" parent="1">
          <mxGeometry x="950" y="128" width="580" height="1252" as="geometry" />
        </mxCell>
        <mxCell id="Ivp-T9Bl2kwM6SWE_Jyq-128" style="edgeStyle=orthogonalEdgeStyle;rounded=0;orthogonalLoop=1;jettySize=auto;html=1;strokeColor=#ff0000;" edge="1" parent="4" source="Ivp-T9Bl2kwM6SWE_Jyq-96" target="Ivp-T9Bl2kwM6SWE_Jyq-124">
          <mxGeometry relative="1" as="geometry" />
        </mxCell>
        <mxCell id="Ivp-T9Bl2kwM6SWE_Jyq-96" value="Gestiona una solución" style="rounded=1;whiteSpace=wrap;html=1;arcSize=40;fontColor=#000000;fillColor=#ffffc0;strokeColor=#ff0000;" vertex="1" parent="4">
          <mxGeometry x="79.96" y="482" width="160.04" height="48" as="geometry" />
        </mxCell>
        <mxCell id="Ivp-T9Bl2kwM6SWE_Jyq-113" style="edgeStyle=orthogonalEdgeStyle;rounded=0;orthogonalLoop=1;jettySize=auto;html=1;strokeColor=#ff0000;" edge="1" parent="4" source="Ivp-T9Bl2kwM6SWE_Jyq-102" target="Ivp-T9Bl2kwM6SWE_Jyq-103">
          <mxGeometry relative="1" as="geometry" />
        </mxCell>
        <mxCell id="Ivp-T9Bl2kwM6SWE_Jyq-102" value="Da seguimiento" style="rounded=1;whiteSpace=wrap;html=1;arcSize=40;fontColor=#000000;fillColor=#ffffc0;strokeColor=#ff0000;" vertex="1" parent="4">
          <mxGeometry x="79.96000000000004" y="662" width="160.04" height="48" as="geometry" />
        </mxCell>
        <mxCell id="Ivp-T9Bl2kwM6SWE_Jyq-114" style="edgeStyle=orthogonalEdgeStyle;rounded=0;orthogonalLoop=1;jettySize=auto;html=1;strokeColor=#ff0000;" edge="1" parent="4" source="Ivp-T9Bl2kwM6SWE_Jyq-103" target="Ivp-T9Bl2kwM6SWE_Jyq-105">
          <mxGeometry relative="1" as="geometry" />
        </mxCell>
        <mxCell id="Ivp-T9Bl2kwM6SWE_Jyq-115" value="No" style="edgeLabel;html=1;align=center;verticalAlign=middle;resizable=0;points=[];" connectable="0" vertex="1" parent="Ivp-T9Bl2kwM6SWE_Jyq-114">
          <mxGeometry x="0.1295" y="4" relative="1" as="geometry">
            <mxPoint as="offset" />
          </mxGeometry>
        </mxCell>
        <mxCell id="Ivp-T9Bl2kwM6SWE_Jyq-120" style="edgeStyle=orthogonalEdgeStyle;rounded=0;orthogonalLoop=1;jettySize=auto;html=1;strokeColor=#ff0000;" edge="1" parent="4" source="Ivp-T9Bl2kwM6SWE_Jyq-103" target="Ivp-T9Bl2kwM6SWE_Jyq-119">
          <mxGeometry relative="1" as="geometry" />
        </mxCell>
        <mxCell id="Ivp-T9Bl2kwM6SWE_Jyq-132" value="Si" style="edgeLabel;html=1;align=center;verticalAlign=middle;resizable=0;points=[];" connectable="0" vertex="1" parent="Ivp-T9Bl2kwM6SWE_Jyq-120">
          <mxGeometry x="0.1984" y="7" relative="1" as="geometry">
            <mxPoint as="offset" />
          </mxGeometry>
        </mxCell>
        <mxCell id="Ivp-T9Bl2kwM6SWE_Jyq-103" value="¿Se resolvió?" style="rhombus;whiteSpace=wrap;html=1;fontColor=#000000;fillColor=#ffffc0;strokeColor=#ff0000;" vertex="1" parent="4">
          <mxGeometry x="104.98" y="762" width="110" height="98" as="geometry" />
        </mxCell>
        <mxCell id="Ivp-T9Bl2kwM6SWE_Jyq-107" style="edgeStyle=orthogonalEdgeStyle;rounded=0;orthogonalLoop=1;jettySize=auto;html=1;" edge="1" parent="4" source="Ivp-T9Bl2kwM6SWE_Jyq-105">
          <mxGeometry relative="1" as="geometry">
            <mxPoint x="405" y="952" as="targetPoint" />
          </mxGeometry>
        </mxCell>
        <mxCell id="Ivp-T9Bl2kwM6SWE_Jyq-105" value="¿Se puede resolver?" style="rhombus;whiteSpace=wrap;html=1;fontColor=#000000;fillColor=#ffffc0;strokeColor=#ff0000;" vertex="1" parent="4">
          <mxGeometry x="350" y="762" width="110" height="98" as="geometry" />
        </mxCell>
        <mxCell id="Ivp-T9Bl2kwM6SWE_Jyq-110" value="" style="edgeStyle=orthogonalEdgeStyle;rounded=0;orthogonalLoop=1;jettySize=auto;html=1;strokeColor=#ff0000;" edge="1" parent="4" source="Ivp-T9Bl2kwM6SWE_Jyq-108" target="Ivp-T9Bl2kwM6SWE_Jyq-105">
          <mxGeometry relative="1" as="geometry" />
        </mxCell>
        <mxCell id="Ivp-T9Bl2kwM6SWE_Jyq-116" value="No" style="edgeLabel;html=1;align=center;verticalAlign=middle;resizable=0;points=[];" connectable="0" vertex="1" parent="Ivp-T9Bl2kwM6SWE_Jyq-110">
          <mxGeometry x="0.1246" y="-3" relative="1" as="geometry">
            <mxPoint as="offset" />
          </mxGeometry>
        </mxCell>
        <mxCell id="Ivp-T9Bl2kwM6SWE_Jyq-111" style="edgeStyle=orthogonalEdgeStyle;rounded=0;orthogonalLoop=1;jettySize=auto;html=1;strokeColor=#ff0000;" edge="1" parent="4" source="Ivp-T9Bl2kwM6SWE_Jyq-108" target="Ivp-T9Bl2kwM6SWE_Jyq-109">
          <mxGeometry relative="1" as="geometry" />
        </mxCell>
        <mxCell id="Ivp-T9Bl2kwM6SWE_Jyq-108" value="Marca solicitud como&lt;br&gt;Sin Solución" style="rounded=1;whiteSpace=wrap;html=1;arcSize=40;fontColor=#000000;fillColor=#ffffc0;strokeColor=#ff0000;" vertex="1" parent="4">
          <mxGeometry x="324.98" y="962" width="160.04" height="58" as="geometry" />
        </mxCell>
        <mxCell id="Ivp-T9Bl2kwM6SWE_Jyq-109" value="" style="ellipse;html=1;shape=endState;fillColor=#000000;strokeColor=#ff0000;" vertex="1" parent="4">
          <mxGeometry x="390" y="1132" width="30" height="30" as="geometry" />
        </mxCell>
        <mxCell id="Ivp-T9Bl2kwM6SWE_Jyq-117" style="edgeStyle=orthogonalEdgeStyle;rounded=0;orthogonalLoop=1;jettySize=auto;html=1;entryX=0.505;entryY=0.122;entryDx=0;entryDy=0;entryPerimeter=0;strokeColor=#ff0000;" edge="1" parent="4" source="Ivp-T9Bl2kwM6SWE_Jyq-105" target="Ivp-T9Bl2kwM6SWE_Jyq-96">
          <mxGeometry relative="1" as="geometry">
            <mxPoint x="160" y="472" as="targetPoint" />
            <Array as="points">
              <mxPoint x="400" y="432" />
              <mxPoint x="161" y="432" />
            </Array>
          </mxGeometry>
        </mxCell>
        <mxCell id="Ivp-T9Bl2kwM6SWE_Jyq-118" value="Si" style="edgeLabel;html=1;align=center;verticalAlign=middle;resizable=0;points=[];" connectable="0" vertex="1" parent="Ivp-T9Bl2kwM6SWE_Jyq-117">
          <mxGeometry x="-0.5344" y="-8" relative="1" as="geometry">
            <mxPoint y="-1" as="offset" />
          </mxGeometry>
        </mxCell>
        <mxCell id="Ivp-T9Bl2kwM6SWE_Jyq-123" style="edgeStyle=orthogonalEdgeStyle;rounded=0;orthogonalLoop=1;jettySize=auto;html=1;strokeColor=#ff0000;" edge="1" parent="4" source="Ivp-T9Bl2kwM6SWE_Jyq-119" target="Ivp-T9Bl2kwM6SWE_Jyq-121">
          <mxGeometry relative="1" as="geometry" />
        </mxCell>
        <mxCell id="Ivp-T9Bl2kwM6SWE_Jyq-119" value="Marca solicitud como&lt;br&gt;Solucionado" style="rounded=1;whiteSpace=wrap;html=1;arcSize=40;fontColor=#000000;fillColor=#ffffc0;strokeColor=#ff0000;" vertex="1" parent="4">
          <mxGeometry x="79.96000000000004" y="962" width="160.04" height="58" as="geometry" />
        </mxCell>
        <mxCell id="Ivp-T9Bl2kwM6SWE_Jyq-121" value="" style="ellipse;html=1;shape=endState;fillColor=#000000;strokeColor=#ff0000;" vertex="1" parent="4">
          <mxGeometry x="144.98000000000002" y="1132" width="30" height="30" as="geometry" />
        </mxCell>
        <mxCell id="Ivp-T9Bl2kwM6SWE_Jyq-129" style="edgeStyle=orthogonalEdgeStyle;rounded=0;orthogonalLoop=1;jettySize=auto;html=1;strokeColor=#ff0000;" edge="1" parent="4" source="Ivp-T9Bl2kwM6SWE_Jyq-124" target="Ivp-T9Bl2kwM6SWE_Jyq-102">
          <mxGeometry relative="1" as="geometry" />
        </mxCell>
        <mxCell id="Ivp-T9Bl2kwM6SWE_Jyq-124" value="" style="rhombus;whiteSpace=wrap;html=1;fontColor=#000000;fillColor=#ffffc0;strokeColor=#ff0000;" vertex="1" parent="4">
          <mxGeometry x="139.97" y="572" width="40.02" height="40" as="geometry" />
        </mxCell>
        <mxCell id="Ivp-T9Bl2kwM6SWE_Jyq-43" value="Visitadora" style="swimlane;whiteSpace=wrap" vertex="1" parent="1">
          <mxGeometry x="50" y="128" width="340" height="1252" as="geometry" />
        </mxCell>
        <mxCell id="zztviay4NaydW35Cvms9-8" style="edgeStyle=orthogonalEdgeStyle;rounded=0;orthogonalLoop=1;jettySize=auto;html=1;strokeColor=#ff0000;" edge="1" parent="1" source="Ivp-T9Bl2kwM6SWE_Jyq-99" target="Ivp-T9Bl2kwM6SWE_Jyq-96">
          <mxGeometry relative="1" as="geometry">
            <Array as="points">
              <mxPoint x="820" y="640" />
            </Array>
          </mxGeometry>
        </mxCell>
        <mxCell id="Ivp-T9Bl2kwM6SWE_Jyq-99" value="Asigna solicitud a usuario de Soporte y marca &quot;en curso&quot;" style="rounded=1;whiteSpace=wrap;html=1;arcSize=40;fontColor=#000000;fillColor=#ffffc0;strokeColor=#ff0000;" vertex="1" parent="1">
          <mxGeometry x="730" y="500" width="180" height="78" as="geometry" />
        </mxCell>
        <mxCell id="Ivp-T9Bl2kwM6SWE_Jyq-130" style="edgeStyle=orthogonalEdgeStyle;rounded=0;orthogonalLoop=1;jettySize=auto;html=1;strokeColor=#ff0000;" edge="1" parent="1" source="Ivp-T9Bl2kwM6SWE_Jyq-66" target="Ivp-T9Bl2kwM6SWE_Jyq-124">
          <mxGeometry relative="1" as="geometry">
            <Array as="points">
              <mxPoint x="350" y="908" />
              <mxPoint x="350" y="720" />
            </Array>
          </mxGeometry>
        </mxCell>
        <mxCell id="S9uKl5C5yZ2V6yRrd8GU-6" value="ad:&amp;nbsp; Resolver Ticket de Soporte" style="shape=umlFrame;whiteSpace=wrap;html=1;pointerEvents=0;width=120;height=50;" vertex="1" parent="1">
          <mxGeometry x="20" y="50" width="1550" height="1360" as="geometry" />
        </mxCell>
        <mxCell id="zztviay4NaydW35Cvms9-6" style="edgeStyle=orthogonalEdgeStyle;rounded=0;orthogonalLoop=1;jettySize=auto;html=1;strokeColor=#ff0000;" edge="1" parent="1" source="Ivp-T9Bl2kwM6SWE_Jyq-44" target="Ivp-T9Bl2kwM6SWE_Jyq-99">
          <mxGeometry relative="1" as="geometry" />
        </mxCell>
        <mxCell id="zztviay4NaydW35Cvms9-7" value="No" style="edgeLabel;html=1;align=center;verticalAlign=middle;resizable=0;points=[];" connectable="0" vertex="1" parent="zztviay4NaydW35Cvms9-6">
          <mxGeometry x="-0.2771" y="-1" relative="1" as="geometry">
            <mxPoint as="offset" />
          </mxGeometry>
        </mxCell>
      </root>
    </mxGraphModel>
  </diagram>
</mxfile>
